<svg width="16" height="16" viewBox="0 0 16 16" fill="none" xmlns="http://www.w3.org/2000/svg">
<path d="M12.25 0H3.75C1.67893 0 0 1.67893 0 3.75V12.25C0 14.3211 1.67893 16 3.75 16H12.25C14.3211 16 16 14.3211 16 12.25V3.75C16 1.67893 14.3211 0 12.25 0Z" fill="#242938"/>
<path d="M13.5026 10.4884V4.67144L8.46125 1.76294V3.99919L10.4391 5.13675C10.5166 5.1755 10.5166 5.29188 10.4391 5.33063L8.08638 6.68794C8.02175 6.72675 7.93131 6.72675 7.86663 6.68794L5.514 5.31775C5.4365 5.279 5.4365 5.16263 5.514 5.12381L7.49181 3.98631V1.75L2.45044 4.6585V10.4884L4.38944 9.37669V7.08869C4.38944 7.01112 4.47988 6.9465 4.55744 6.99819L6.91006 8.3555C6.97475 8.39425 7.02644 8.47181 7.02644 8.54937V11.2639C7.02644 11.3415 6.93594 11.4061 6.85838 11.3544L4.88063 10.2169L2.94163 11.3286L7.983 14.2371L13.0244 11.3286L11.0854 10.2169L9.10763 11.3544C9.043 11.3932 8.93956 11.3415 8.93956 11.2639V8.54937C8.93956 8.47181 8.97831 8.39425 9.05588 8.3555L11.4086 6.99819C11.4732 6.95938 11.5766 7.01112 11.5766 7.08869V9.37669L13.5026 10.4884Z" fill="#CCCCCC"/>
<path d="M7.97006 14.25L13.0114 11.3415L11.0724 10.2298L9.09469 11.3674C9.03006 11.4062 8.92662 11.3544 8.92662 11.2769V8.56232C8.92662 8.48476 8.96544 8.4072 9.043 8.36845L11.3956 7.01114C11.4602 6.97239 11.5637 7.02407 11.5637 7.10164V9.38964L13.5026 10.5013V4.67145L7.97006 7.86426V14.25Z" fill="#A6A6A6"/>
<path d="M8.44838 1.75V3.98625L10.4261 5.12381C10.5037 5.16256 10.5037 5.27894 10.4261 5.31775L8.0735 6.675C8.00888 6.71381 7.91838 6.71381 7.85375 6.675L5.514 5.31775C5.4365 5.279 5.4365 5.16263 5.514 5.12381L7.49181 3.98631V1.75L2.45044 4.6585L7.983 7.85131L13.5156 4.6585L8.44838 1.75Z" fill="white"/>
<path d="M6.8325 11.3544L4.85475 10.2169L2.91581 11.3286L7.95713 14.2371V7.85139L2.4375 4.67139V10.5013L4.3765 9.38964V7.10164C4.3765 7.02407 4.467 6.95945 4.54456 7.01114L6.89719 8.36845C6.96181 8.4072 7.0135 8.48476 7.0135 8.56232V11.2769C7.00056 11.3415 6.91006 11.3933 6.8325 11.3544Z" fill="#CCCCCC"/>
</svg>
